<?xml version="1.0" standalone="no"?>
<!DOCTYPE svg PUBLIC "-//W3C//DTD SVG 20010904//EN"
 "http://www.w3.org/TR/2001/REC-SVG-20010904/DTD/svg10.dtd">
<svg version="1.0" xmlns="http://www.w3.org/2000/svg"
 width="1024.000000pt" height="1024.000000pt" viewBox="0 0 1024.000000 1024.000000"
 preserveAspectRatio="xMidYMid meet">
<metadata>
Created by potrace 1.11, written by Peter Selinger 2001-2013
</metadata>
<g transform="translate(0.000000,1024.000000) scale(0.100000,-0.100000)"
fill="#000000" stroke="none">
<path d="M0 5120 l0 -5120 5120 0 5120 0 0 5120 0 5120 -5120 0 -5120 0 0
-5120z m6715 3040 c864 -409 1571 -743 1572 -744 9 -6 782 -3370 776 -3380 -4
-7 -498 -617 -1098 -1354 l-1090 -1342 -1755 0 -1755 0 -1090 1342 c-600 737
-1094 1347 -1098 1354 -8 14 769 3377 781 3382 4 1 714 337 1577 747 864 409
1579 742 1590 741 11 -2 727 -338 1590 -746z"/>
<path d="M3670 7894 c-795 -376 -1448 -685 -1451 -686 -4 -2 -168 -695 -365
-1542 -309 -1332 -355 -1541 -344 -1559 7 -12 458 -569 1002 -1239 l990 -1218
1618 0 1618 0 990 1218 c544 670 995 1227 1002 1239 11 18 -35 227 -344 1559
-197 847 -359 1539 -360 1540 -12 7 -2894 1367 -2901 1369 -5 2 -660 -304
-1455 -681z m1660 -394 c1080 -68 1943 -568 2174 -1261 37 -111 56 -236 56
-370 l0 -119 -2440 0 -2440 0 0 119 c0 193 37 354 120 526 233 481 822 872
1550 1029 327 71 655 96 980 76z m1977 -2041 c38 -14 92 -67 109 -106 20 -46
20 -420 0 -466 -17 -39 -71 -92 -109 -106 -20 -8 -689 -11 -2187 -11 -1498 0
-2167 3 -2187 11 -38 14 -92 67 -109 106 -17 40 -20 416 -3 460 14 37 66 92
104 109 25 11 405 13 2192 14 1501 0 2170 -3 2190 -11z m253 -1088 c0 -457
-241 -850 -715 -1166 -638 -426 -1617 -579 -2490 -390 -736 159 -1321 547
-1555 1030 -83 172 -120 333 -120 526 l0 119 2440 0 2440 0 0 -119z"/>
<path d="M4785 7189 c-862 -82 -1584 -511 -1764 -1046 -12 -34 -21 -67 -21
-73 0 -7 670 -10 2120 -10 1450 0 2120 3 2120 10 0 25 -45 142 -83 215 -189
363 -657 676 -1222 818 -164 41 -345 73 -500 87 -129 12 -521 11 -650 -1z"/>
<path d="M3000 4170 c0 -25 45 -142 83 -215 189 -363 657 -676 1222 -818 283
-71 501 -97 815 -97 228 0 364 10 550 41 697 116 1267 451 1487 874 38 73 83
190 83 215 0 7 -670 10 -2120 10 -1450 0 -2120 -3 -2120 -10z"/>
</g>
</svg>
