<?xml version="1.0" encoding="utf-8"?>
<!-- Generator: Adobe Illustrator 19.0.0, SVG Export Plug-In . SVG Version: 6.00 Build 0)  -->
<svg version="1.1" id="char-broiled_cheeseburger" xmlns="http://www.w3.org/2000/svg" xmlns:xlink="http://www.w3.org/1999/xlink"
	 x="0px" y="0px" viewBox="-64 -5 220 210" style="enable-background:new -64 -5 220 210;" xml:space="preserve">
<style type="text/css">
	.st0{fill:#FF674D;stroke:#FF674D;stroke-miterlimit:10;}
	.st1{fill:#FF674D;}
</style>
<path class="st0" d="M27,128.6H-35c-8.1,0-14.3-6.2-14.3-14.3c0-8.1,6.2-14.3,14.3-14.3H27c8.1,0,14.3,6.2,14.3,14.3
	C41.2,122.4,35,128.6,27,128.6 M-35,109.5c-2.9,0-4.8,1.9-4.8,4.8c0,2.9,1.9,4.8,4.8,4.8H27c2.9,0,4.8-1.9,4.8-4.8s-1.9-4.8-4.8-4.8
	H-35z"/>
<path class="st1" d="M88.9,128.6H46c-8.1,0-14.3-6.2-14.3-14.3c0-8.1,6.2-14.3,14.3-14.3h42.9c8.1,0,14.3,6.2,14.3,14.3
	C103.1,122.4,97,128.6,88.9,128.6 M46,109.5c-2.9,0-4.8,1.9-4.8,4.8c0,2.9,1.9,4.8,4.8,4.8h42.9c2.9,0,4.8-1.9,4.8-4.8
	s-1.9-4.8-4.8-4.8H46z"/>
<path class="st1" d="M127,128.6h-19c-8.1,0-14.3-6.2-14.3-14.3c0-8.1,6.2-14.3,14.3-14.3h19c8.1,0,14.3,6.2,14.3,14.3
	C141.2,122.4,135,128.6,127,128.6 M107.9,109.5c-2.9,0-4.8,1.9-4.8,4.8c0,2.9,1.9,4.8,4.8,4.8h19c2.9,0,4.8-1.9,4.8-4.8
	s-1.9-4.8-4.8-4.8H107.9z"/>
<path class="st0" d="M127,76.2H-35c-8.1,0-14.3-6.2-14.3-14.3C-49.2,27.6-21.6,0,12.7,0h66.7c34.3,0,61.9,27.6,61.9,61.9
	C141.2,70,135,76.2,127,76.2 M12.7,9.5c-29,0-52.4,23.3-52.4,52.4c0,2.9,1.9,4.8,4.8,4.8H127c2.9,0,4.8-1.9,4.8-4.8
	c0-29-23.3-52.4-52.4-52.4C79.3,9.5,12.7,9.5,12.7,9.5z"/>
<path class="st0" d="M134.1,166.7H-42.1c-9,0-16.7-7.6-16.7-16.7s7.6-16.7,16.7-16.7h176.2c9,0,16.7,7.6,16.7,16.7
	S143.1,166.7,134.1,166.7 M-42.1,142.9c-3.8,0-7.1,3.3-7.1,7.1s3.3,7.1,7.1,7.1h176.2c3.8,0,7.1-3.3,7.1-7.1s-3.3-7.1-7.1-7.1H-42.1
	z"/>
<path class="st0" d="M138.9,142.9H-46.9c-6.7,0-11.9-5.2-11.9-11.9c0-6.7,5.2-11.9,11.9-11.9h185.7c6.7,0,11.9,5.2,11.9,11.9
	C150.8,137.6,145.5,142.9,138.9,142.9 M-46.9,128.6c-1.4,0-2.4,1-2.4,2.4s1,2.4,2.4,2.4h185.7c1.4,0,2.4-1,2.4-2.4s-1-2.4-2.4-2.4
	H-46.9z"/>
<path class="st0" d="M138.9,90.5H-46.9c-6.7,0-11.9-5.2-11.9-11.9c0-6.7,5.2-11.9,11.9-11.9h185.7c6.7,0,11.9,5.2,11.9,11.9
	C150.8,85.2,145.5,90.5,138.9,90.5 M-46.9,76.2c-1.4,0-2.4,1-2.4,2.4s1,2.4,2.4,2.4h185.7c1.4,0,2.4-1,2.4-2.4s-1-2.4-2.4-2.4H-46.9
	z"/>
<path class="st0" d="M5.5,128.6c-6.7,0-11.9-5.2-11.9-11.9v-7.1h-33.3c-8.1,0-14.3-6.2-14.3-14.3S-47.8,81-39.7,81h171.4
	c8.1,0,14.3,6.2,14.3,14.3s-6.2,14.3-14.3,14.3H38.4c-3.3,0-6.2,1-9,3.3l-16.7,13.3C10.8,127.6,7.9,128.6,5.5,128.6 M-39.7,90.5
	c-2.9,0-4.8,1.9-4.8,4.8c0,2.9,1.9,4.8,4.8,4.8h33.3c5.2,0,9.5,4.3,9.5,9.5v7.1c0,1.9,2.4,2.9,3.8,1.9l16.7-13.3
	c4.3-3.3,9.5-5.2,14.8-5.2h93.3c2.9,0,4.8-1.9,4.8-4.8s-1.9-4.8-4.8-4.8H-39.7z"/>
<path class="st1" d="M31.7,23.8c2.6,0,4.8,2.1,4.8,4.8s-2.1,4.8-4.8,4.8S27,31.2,27,28.6C27,25.9,29.1,23.8,31.7,23.8"/>
<path class="st1" d="M3.1,23.8c2.6,0,4.8,2.1,4.8,4.8s-2.1,4.8-4.8,4.8c-2.6,0-4.8-2.1-4.8-4.8C-1.6,25.9,0.5,23.8,3.1,23.8"/>
<path class="st1" d="M-11.1,42.9c2.6,0,4.8,2.1,4.8,4.8c0,2.6-2.1,4.8-4.8,4.8c-2.6,0-4.8-2.1-4.8-4.8C-15.9,45-13.8,42.9-11.1,42.9
	"/>
<path class="st1" d="M17.4,42.9c2.6,0,4.8,2.1,4.8,4.8c0,2.6-2.1,4.8-4.8,4.8s-4.8-2.1-4.8-4.8C12.7,45,14.8,42.9,17.4,42.9"/>
<path class="st1" d="M88.9,23.8c2.6,0,4.8,2.1,4.8,4.8s-2.1,4.8-4.8,4.8c-2.6,0-4.8-2.1-4.8-4.8C84.1,25.9,86.2,23.8,88.9,23.8"/>
<path class="st1" d="M60.3,23.8c2.6,0,4.8,2.1,4.8,4.8s-2.1,4.8-4.8,4.8c-2.6,0-4.8-2.1-4.8-4.8C55.5,25.9,57.7,23.8,60.3,23.8"/>
<path class="st1" d="M46,42.9c2.6,0,4.8,2.1,4.8,4.8c0,2.6-2.1,4.8-4.8,4.8s-4.8-2.1-4.8-4.8C41.2,45,43.4,42.9,46,42.9"/>
<path class="st1" d="M74.6,42.9c2.6,0,4.8,2.1,4.8,4.8c0,2.6-2.1,4.8-4.8,4.8c-2.6,0-4.8-2.1-4.8-4.8C69.8,45,71.9,42.9,74.6,42.9"
	/>
<path class="st1" d="M103.1,42.9c2.6,0,4.8,2.1,4.8,4.8c0,2.6-2.1,4.8-4.8,4.8c-2.6,0-4.8-2.1-4.8-4.8
	C98.4,45,100.5,42.9,103.1,42.9"/>
<path class="st0" d="M112.7,200H-20.7c-15.7,0-28.6-12.9-28.6-28.6c0-8.1,6.2-14.3,14.3-14.3H127c8.1,0,14.3,6.2,14.3,14.3
	C141.2,187.1,128.4,200,112.7,200 M-35,166.7c-2.9,0-4.8,1.9-4.8,4.8c0,10.5,8.6,19,19,19h133.3c10.5,0,19-8.6,19-19
	c0-2.9-1.9-4.8-4.8-4.8H-35z"/>
</svg>
